<svg width="128" height="36" viewBox="0 0 128 36" fill="none" xmlns="http://www.w3.org/2000/svg">
  <path
    d="M1.79109 30C1.52709 30 1.31109 29.916 1.14309 29.748C0.975094 29.58 0.891094 29.364 0.891094 29.1V5.7C0.891094 5.436 0.975094 5.22 1.14309 5.052C1.31109 4.884 1.52709 4.8 1.79109 4.8H6.54309C6.78309 4.8 6.98709 4.884 7.15509 5.052C7.34709 5.22 7.44309 5.436 7.44309 5.7V24.564H18.3151C18.5791 24.564 18.7951 24.66 18.9631 24.852C19.1551 25.02 19.2511 25.236 19.2511 25.5V29.1C19.2511 29.364 19.1551 29.58 18.9631 29.748C18.7951 29.916 18.5791 30 18.3151 30H1.79109ZM23.2716 30C23.0316 30 22.8156 29.916 22.6236 29.748C22.4556 29.58 22.3716 29.364 22.3716 29.1V5.7C22.3716 5.436 22.4556 5.22 22.6236 5.052C22.8156 4.884 23.0316 4.8 23.2716 4.8H27.1596C27.5436 4.8 27.8316 4.908 28.0236 5.124C28.2396 5.316 28.3716 5.472 28.4196 5.592L34.7556 16.968L41.0916 5.592C41.1636 5.472 41.2836 5.316 41.4516 5.124C41.6436 4.908 41.9436 4.8 42.3516 4.8H46.2036C46.4676 4.8 46.6836 4.884 46.8516 5.052C47.0436 5.22 47.1396 5.436 47.1396 5.7V29.1C47.1396 29.364 47.0436 29.58 46.8516 29.748C46.6836 29.916 46.4676 30 46.2036 30H41.9196C41.6556 30 41.4276 29.916 41.2356 29.748C41.0676 29.58 40.9836 29.364 40.9836 29.1V15.6L36.9156 23.124C36.8196 23.34 36.6756 23.532 36.4836 23.7C36.2916 23.868 36.0276 23.952 35.6916 23.952H33.8196C33.4836 23.952 33.2196 23.868 33.0276 23.7C32.8356 23.532 32.6796 23.34 32.5596 23.124L28.4916 15.6V29.1C28.4916 29.364 28.4076 29.58 28.2396 29.748C28.0716 29.916 27.8556 30 27.5916 30H23.2716Z"
    fill="#F3F3F3" />
  <path
    d="M52.2288 30C51.9648 30 51.7488 29.916 51.5808 29.748C51.4128 29.58 51.3288 29.364 51.3288 29.1V24.528C51.3288 24.288 51.4128 24.084 51.5808 23.916C51.7488 23.724 51.9648 23.628 52.2288 23.628H56.7648C57.0288 23.628 57.2448 23.724 57.4128 23.916C57.6048 24.084 57.7008 24.288 57.7008 24.528V29.1C57.7008 29.364 57.6048 29.58 57.4128 29.748C57.2448 29.916 57.0288 30 56.7648 30H52.2288Z"
    fill="#007AFF" />
  <path
    d="M63.4942 30C63.2302 30 63.0142 29.916 62.8462 29.748C62.6782 29.58 62.5942 29.364 62.5942 29.1V5.7C62.5942 5.436 62.6782 5.22 62.8462 5.052C63.0142 4.884 63.2302 4.8 63.4942 4.8H72.8542C75.2062 4.8 77.2102 5.184 78.8662 5.952C80.5222 6.696 81.7942 7.8 82.6822 9.264C83.5702 10.704 84.0502 12.492 84.1222 14.628C84.1462 15.684 84.1582 16.608 84.1582 17.4C84.1582 18.192 84.1462 19.104 84.1222 20.136C84.0262 22.368 83.5462 24.216 82.6822 25.68C81.8422 27.144 80.6062 28.236 78.9742 28.956C77.3662 29.652 75.3862 30 73.0342 30H63.4942ZM69.0382 24.816H72.8542C73.8862 24.816 74.7382 24.66 75.4102 24.348C76.1062 24.012 76.6222 23.496 76.9582 22.8C77.3182 22.104 77.5102 21.192 77.5342 20.064C77.5822 19.368 77.6062 18.744 77.6062 18.192C77.6302 17.64 77.6302 17.088 77.6062 16.536C77.6062 15.984 77.5822 15.372 77.5342 14.7C77.4862 13.068 77.0542 11.88 76.2382 11.136C75.4462 10.368 74.2582 9.984 72.6742 9.984H69.0382V24.816ZM96.6078 30.36C93.7758 30.36 91.5198 29.592 89.8398 28.056C88.1598 26.52 87.2838 24.24 87.2118 21.216C87.2118 21.048 87.2118 20.832 87.2118 20.568C87.2118 20.304 87.2118 20.1 87.2118 19.956C87.2838 18.06 87.7038 16.44 88.4718 15.096C89.2638 13.728 90.3438 12.696 91.7118 12C93.1038 11.28 94.7238 10.92 96.5718 10.92C98.6838 10.92 100.424 11.34 101.792 12.18C103.184 13.02 104.228 14.16 104.924 15.6C105.62 17.04 105.968 18.684 105.968 20.532V21.396C105.968 21.66 105.872 21.876 105.68 22.044C105.512 22.212 105.308 22.296 105.068 22.296H93.5478C93.5478 22.32 93.5478 22.356 93.5478 22.404C93.5478 22.452 93.5478 22.5 93.5478 22.548C93.5718 23.244 93.6918 23.88 93.9078 24.456C94.1238 25.032 94.4598 25.488 94.9158 25.824C95.3718 26.16 95.9238 26.328 96.5718 26.328C97.0518 26.328 97.4478 26.256 97.7598 26.112C98.0958 25.944 98.3718 25.764 98.5878 25.572C98.8038 25.356 98.9718 25.176 99.0918 25.032C99.3078 24.792 99.4758 24.648 99.5958 24.6C99.7398 24.528 99.9558 24.492 100.244 24.492H104.708C104.948 24.492 105.14 24.564 105.284 24.708C105.452 24.828 105.524 25.008 105.5 25.248C105.476 25.656 105.272 26.148 104.888 26.724C104.504 27.3 103.94 27.876 103.196 28.452C102.476 29.004 101.564 29.46 100.46 29.82C99.3558 30.18 98.0718 30.36 96.6078 30.36ZM93.5478 18.732H99.6318V18.66C99.6318 17.892 99.5118 17.22 99.2718 16.644C99.0558 16.068 98.7078 15.624 98.2278 15.312C97.7718 15 97.2198 14.844 96.5718 14.844C95.9238 14.844 95.3718 15 94.9158 15.312C94.4838 15.624 94.1478 16.068 93.9078 16.644C93.6678 17.22 93.5478 17.892 93.5478 18.66V18.732ZM115.3 30C114.94 30 114.676 29.916 114.508 29.748C114.34 29.556 114.196 29.34 114.076 29.1L107.272 12.396C107.224 12.3 107.2 12.192 107.2 12.072C107.2 11.856 107.272 11.676 107.416 11.532C107.584 11.364 107.788 11.28 108.028 11.28H112.096C112.408 11.28 112.648 11.364 112.816 11.532C112.984 11.7 113.092 11.868 113.14 12.036L117.208 23.088L121.312 12.036C121.36 11.868 121.468 11.7 121.636 11.532C121.804 11.364 122.044 11.28 122.356 11.28H126.424C126.64 11.28 126.832 11.364 127 11.532C127.168 11.676 127.252 11.856 127.252 12.072C127.252 12.192 127.228 12.3 127.18 12.396L120.376 29.1C120.28 29.34 120.136 29.556 119.944 29.748C119.776 29.916 119.5 30 119.116 30H115.3Z"
    fill="#007AFF" />
</svg>